<svg 
    width="128" 
    height="128" 
    viewBox="0 0 128 128" 
    xmlns="http://www.w3.org/2000/svg"
>
  <!-- Background (accent shape) -->
  <circle 
    cx="64" 
    cy="64" 
    r="60" 
    fill="#FF5722" 
  />

  <!-- First document (front) -->
  <path 
    d="M40 32 H88 A4 4 0 0 1 92 36 V92 A4 4 0 0 1 88 96 H40 A4 4 0 0 1 36 92 V36 A4 4 0 0 1 40 32 Z" 
    fill="#FFFFFF" 
    stroke="#000000" 
    stroke-width="4"
  />
  <!-- Folded corner detail -->
  <path 
    d="M86 32 L86 45 A2 2 0 0 0 88 47 L101 47" 
    fill="none" 
    stroke="#000000" 
    stroke-width="4"
    stroke-linecap="round"
  />

  <!-- Second document (behind, slightly offset) -->
  <path 
    d="M36 40 H84 A4 4 0 0 1 88 44 V100 A4 4 0 0 1 84 104 H36 A4 4 0 0 1 32 100 V44 A4 4 0 0 1 36 40 Z" 
    fill="#FFFFFF" 
    stroke="#000000" 
    stroke-width="4"
    opacity="0.8"
    transform="translate(6 6)"
  />

  <!-- "Fun" accent detail inside the front document (a few lines mimicking text) -->
  <line 
    x1="48" 
    y1="50" 
    x2="80" 
    y2="50" 
    stroke="#000000" 
    stroke-width="3" 
    stroke-linecap="round" 
  />
  <line 
    x1="48" 
    y1="60" 
    x2="80" 
    y2="60" 
    stroke="#000000" 
    stroke-width="3" 
    stroke-linecap="round" 
  />
  <line 
    x1="48" 
    y1="70" 
    x2="72" 
    y2="70" 
    stroke="#000000" 
    stroke-width="3" 
    stroke-linecap="round" 
  />
</svg>
